<?xml version="1.0" encoding="UTF-8" standalone="no"?>
<svg
   xmlns:dc="http://purl.org/dc/elements/1.1/"
   xmlns:cc="http://creativecommons.org/ns#"
   xmlns:rdf="http://www.w3.org/1999/02/22-rdf-syntax-ns#"
   xmlns:svg="http://www.w3.org/2000/svg"
   xmlns="http://www.w3.org/2000/svg"
   xmlns:sodipodi="http://sodipodi.sourceforge.net/DTD/sodipodi-0.dtd"
   xmlns:inkscape="http://www.inkscape.org/namespaces/inkscape"
   width="3.6521714in"
   height="0.81222224in"
   viewBox="0 0 328.69541 73.099999"
   id="svg2"
   version="1.1"
   inkscape:version="0.92.4 (unknown)"
   sodipodi:docname="logo.svg">
  <defs
     id="defs4">
    <inkscape:path-effect
       message="Use fill-rule evenodd on &lt;b&gt;fill and stroke&lt;/b&gt; dialog if no flatten result after convert clip to paths."
       hide_clip="false"
       flatten="false"
       inverse="true"
       lpeversion="1"
       is_visible="true"
       id="path-effect985"
       effect="powerclip" />
    <rect
       x="300.90469"
       y="189.79086"
       width="145.3125"
       height="70.3125"
       id="rect842" />
    <clipPath
       id="clipPath981"
       clipPathUnits="userSpaceOnUse">
      <path
         sodipodi:nodetypes="ccccccccccc"
         inkscape:connector-curvature="0"
         id="path983"
         d="m -280.17551,-288.22836 12.08333,21.25 23.33334,-42.67724 22.08333,-15.65609 5.83333,5.83333 12.5,-15.625 h -114.16666 l 9.58333,20.20833 9.58333,0.83334 7.60111,13.75 z"
         style="display:none;fill:#ffffff;fill-rule:evenodd;stroke:none;stroke-width:0.291667px;stroke-linecap:butt;stroke-linejoin:miter;stroke-opacity:1" />
      <path
         d="m -328.09645,-340.01574 h 131.87503 v 80.44428 h -131.87503 z m 47.92094,51.78738 12.08333,21.25 23.33334,-42.67724 22.08333,-15.65609 5.83333,5.83333 12.5,-15.625 h -114.16666 l 9.58333,20.20833 9.58333,0.83334 7.60111,13.75 z"
         class="powerclip"
         style="fill:#ffffff;fill-rule:evenodd;stroke:none;stroke-width:0.291667px;stroke-linecap:butt;stroke-linejoin:miter;stroke-opacity:1"
         id="lpe_path-effect985" />
    </clipPath>
  </defs>
  <sodipodi:namedview
     id="base"
     pagecolor="#ffffff"
     bordercolor="#666666"
     borderopacity="1.0"
     inkscape:pageopacity="0.0"
     inkscape:pageshadow="2"
     inkscape:zoom="2.2174259"
     inkscape:cx="-53.381934"
     inkscape:cy="143.69617"
     inkscape:document-units="px"
     inkscape:current-layer="text848"
     showgrid="true"
     inkscape:snap-bbox="true"
     inkscape:bbox-nodes="true"
     fit-margin-top="0"
     fit-margin-left="0"
     fit-margin-right="0"
     fit-margin-bottom="0"
     inkscape:window-width="2560"
     inkscape:window-height="1389"
     inkscape:window-x="0"
     inkscape:window-y="25"
     inkscape:window-maximized="1"
     inkscape:snap-smooth-nodes="false"
     inkscape:object-nodes="true"
     inkscape:snap-bbox-edge-midpoints="true"
     inkscape:document-rotation="0"
     units="in">
    <inkscape:grid
       type="xygrid"
       id="grid4155"
       originx="-205.00423"
       originy="-800.53119" />
  </sodipodi:namedview>
  <metadata
     id="metadata7">
    <rdf:RDF>
      <cc:Work
         rdf:about="">
        <dc:format>image/svg+xml</dc:format>
        <dc:type
           rdf:resource="http://purl.org/dc/dcmitype/StillImage" />
        <dc:title />
      </cc:Work>
    </rdf:RDF>
  </metadata>
  <g
     inkscape:label="Layer 1"
     inkscape:groupmode="layer"
     id="layer1"
     transform="translate(-205.00423,-262.89346)">
    <g
       id="g4186"
       transform="translate(3.7828067,-0.86614327)">
      <path
         inkscape:path-effect="#path-effect985"
         clip-path="url(#clipPath981)"
         sodipodi:open="true"
         transform="scale(-1)"
         d="m -201.22142,-334.89621 a 60.937511,70.324753 0 0 1 -30.49867,60.92294 60.937511,70.324753 0 0 1 -60.96738,-0.0598 60.937511,70.324753 0 0 1 -30.40889,-60.98267"
         sodipodi:arc-type="arc"
         sodipodi:end="3.1432924"
         sodipodi:start="0"
         sodipodi:ry="70.324753"
         sodipodi:rx="60.937511"
         sodipodi:cy="-334.89621"
         sodipodi:cx="-262.15894"
         sodipodi:type="arc"
         id="path979"
         style="fill:#161650;fill-opacity:1;stroke-width:7.08662" />
      <g
         aria-label="RTIC"
         style="font-style:normal;font-variant:normal;font-weight:800;font-stretch:normal;font-size:100px;line-height:1.25;font-family:'Fira Sans';-inkscape-font-specification:'Fira Sans Ultra-Bold';letter-spacing:0px;word-spacing:0px;fill:#161650;fill-opacity:1;stroke-width:0.9375"
         id="text848">
        <path
           d="m 370.91717,335.0596 h 20.6 l -17.3,-29 c 8.7,-4.6 12.8,-9.9 12.8,-18.9 0,-14.8 -9.8,-21.6 -29.2,-21.6 h -24.1 v 69.5 h 18.5 v -25.6 h 5.1 z m -18.7,-56.6 h 5.2 c 7,0 10.6,2.7 10.6,8.7 0,6.7 -3.3,9.7 -9.6,9.7 h -6.2 z"
           style="font-style:normal;font-variant:normal;font-weight:800;font-stretch:normal;font-size:100px;font-family:'Fira Sans';-inkscape-font-specification:'Fira Sans Ultra-Bold';fill:#161650;fill-opacity:1;stroke-width:0.9375"
           id="path825" />
        <path
           d="m 443.17811,265.5596 h -54.2 v 14.1 h 17.4 v 55.4 h 18.5 v -55.4 h 16.4 z"
           style="font-style:normal;font-variant:normal;font-weight:800;font-stretch:normal;font-size:100px;font-family:'Fira Sans';-inkscape-font-specification:'Fira Sans Ultra-Bold';fill:#161650;fill-opacity:1;stroke-width:0.9375"
           id="path827" />
        <path
           d="m 466.86561,265.5596 h -18.5 v 69.5 h 18.5 z"
           style="font-style:normal;font-variant:normal;font-weight:800;font-stretch:normal;font-size:100px;font-family:'Fira Sans';-inkscape-font-specification:'Fira Sans Ultra-Bold';fill:#161650;fill-opacity:1;stroke-width:0.9375"
           id="path829" />
        <path
           d="m 507.26248,263.7596 c -18.8,0 -32.3,13.2 -32.3,36.4 0,23.9 12.9,36.7 32.6,36.7 9.6,0 17.4,-4.4 22.3,-9.3 l -8.2,-10.4 c -4.2,3.3 -8.1,5.7 -13.3,5.7 -8.7,0 -14.2,-7 -14.2,-22.7 0,-15.9 5.6,-22.9 14,-22.9 4.7,0 8.4,1.8 12.2,4.7 l 8.7,-10.3 c -5.9,-5 -12.7,-7.9 -21.8,-7.9 z"
           style="font-style:normal;font-variant:normal;font-weight:800;font-stretch:normal;font-size:100px;font-family:'Fira Sans';-inkscape-font-specification:'Fira Sans Ultra-Bold';fill:#161650;fill-opacity:1;stroke-width:0.9375"
           id="path831" />
      </g>
    </g>
  </g>
</svg>
